# xmcd CD database file
#
# Track frame offsets:
#	151
#	9912
#	23832
#	40518
#	51613
#	61743
#	74509
#	85318
#	96721
#	108680
#	120144
#	136058
#	148145
#	161555
#	174400
#
# Disc length: 2501 seconds
#
# Revision: 0
# Processed by: cddbd v1.5.1PL2 Copyright (c) Steve Scherf et al.
# Submitted via: CDex 1.51
#
DISCID=ca09c30f
DTITLE=Dusty Spittle - Down A Country Road
DYEAR=2000
DGENRE=Country
TTITLE0=Hokonui Moonshine
TTITLE1=Rachel
TTITLE2=The Solder That Never Returned
TTITLE3=Someday
TTITLE4=Queensland Harry
TTITLE5=Teenagers Waltz
TTITLE6=Down A Country Road I Know
TTITLE7=Shadow Of The Blues
TTITLE8=George And Mary
TTITLE9=Roses And Crystal
TTITLE10=A Fellow With A Fiddle
TTITLE11=Thank You For Being You
TTITLE12=I Talked To A Memory Today
TTITLE13=The Wouldn't Have A Clue
TTITLE14=Cardigan Bay
EXTD=YEAR: 2000
EXTT0=
EXTT1=
EXTT2=
EXTT3=
EXTT4=
EXTT5=
EXTT6=
EXTT7=
EXTT8=
EXTT9=
EXTT10=
EXTT11=
EXTT12=
EXTT13=
EXTT14=
PLAYORDER=
